<svg width="406" height="406" viewBox="0 0 406 406" fill="none" xmlns="http://www.w3.org/2000/svg">
<rect width="406" height="406" fill="black"/>
<path d="M127.734 252V161.76H167.798C177.697 161.76 185.249 164.149 190.454 168.928C195.659 173.707 198.262 180.277 198.262 188.64C198.262 196.917 195.659 203.488 190.454 208.352C185.249 213.216 177.697 215.648 167.798 215.648H144.246V252H127.734ZM144.246 202.592H165.878C171.339 202.592 175.435 201.397 178.166 199.008C180.897 196.533 182.262 193.077 182.262 188.64C182.262 184.203 180.897 180.789 178.166 178.4C175.435 175.925 171.339 174.688 165.878 174.688H144.246V202.592ZM212.984 252V161.76H253.048C262.947 161.76 270.499 164.149 275.704 168.928C280.909 173.707 283.512 180.277 283.512 188.64C283.512 196.917 280.909 203.488 275.704 208.352C270.499 213.216 262.947 215.648 253.048 215.648H229.496V252H212.984ZM229.496 202.592H251.128C256.589 202.592 260.685 201.397 263.416 199.008C266.147 196.533 267.512 193.077 267.512 188.64C267.512 184.203 266.147 180.789 263.416 178.4C260.685 175.925 256.589 174.688 251.128 174.688H229.496V202.592Z" fill="white"/>
</svg>
